/* XPM */
static char * bmArrowYMinusBlue_xpm[] = {
"40 40 12 1",
" 	c None",
".	c #000600",
"+	c #001200",
"@	c #000000",
"#	c #0000FF",
"$	c #000D00",
"%	c #001000",
"&	c #000C00",
"*	c #001800",
"=	c #001700",
"-	c #001600",
";	c #000800",
"                .+++++++.               ",
"                @#######@               ",
"                @#######@               ",
"                @#######@               ",
"                @#######@               ",
"                @#######@               ",
"                @#######@               ",
"                @#######@               ",
"                @#######@               ",
"                @#######@               ",
"                @#######@               ",
"                @#######@               ",
"                @#######@               ",
"                @#######@               ",
"                @#######@               ",
"                @#######@               ",
"                @#######@               ",
"                @#######@               ",
"                @#######@               ",
"                @#######@               ",
"                @#######@               ",
"                @#######@               ",
"                @#######@               ",
"                @#######@               ",
"                @#######@               ",
"                @#######@               ",
"       .$%%%%%%&@#######@&%%%%%%$.      ",
"        *#######################*       ",
"         *#####################*        ",
"          *###################*         ",
"           =#################=          ",
"            =###############=           ",
"             =#############=            ",
"              =###########=             ",
"               =#########=              ",
"                -#######-               ",
"                 -#####-                ",
"                  -###-                 ",
"                   -#-                  ",
"                    ;                   "};
